<svg xmlns="http://www.w3.org/2000/svg" width="32.2" height="28.044" viewBox="0 0 32.2 28.044">
  <g id="logo" transform="translate(50.118 -33.956) rotate(90)">
    <path id="Path_1" data-name="Path 1" d="M23.32,22.2H8.639c-.369,0-.739-.8-.739-1.6s.369-1.6.739-1.6H23.228c.369,0,.739.8.739,1.6C24.059,21.4,23.689,22.2,23.32,22.2Z" transform="translate(37.941 27.918)" fill="#969a9d"/>
    <path id="Path_2" data-name="Path 2" d="M27.118,15.9H.882C.441,15.9,0,15.1,0,14.3s.441-1.6.882-1.6H27.118c.441,0,.882.8.882,1.6S27.559,15.9,27.118,15.9Z" transform="translate(33.956 25.218)" fill="#969a9d"/>
    <path id="Path_3" data-name="Path 3" d="M27.118,3.2H.882C.441,3.2,0,2.4,0,1.6S.441,0,.882,0H27.118C27.559,0,28,.8,28,1.6S27.559,3.2,27.118,3.2Z" transform="translate(34 17.918)" fill="#969a9d"/>
    <path id="Path_4" data-name="Path 4" d="M23.32,9.5H8.639c-.369,0-.739-.8-.739-1.6s.369-1.6.739-1.6H23.228c.369,0,.739.8.739,1.6C24.059,8.9,23.689,9.5,23.32,9.5Z" transform="translate(37.941 21.618)" fill="#969a9d"/>
  </g>
</svg>
